<svg width="24" height="25" viewBox="0 0 24 25" fill="none" xmlns="http://www.w3.org/2000/svg">
<path d="M0.75 19.85C0.75 20.075 0.7125 21.125 2.1 21.125H21.9375C22.1625 21.125 23.2125 20.9375 23.25 19.925V14.4125C23.25 11.375 21.9 6.875 17.5875 6.875H2.55C0.75 6.875 0.75 8.075 0.75 10.025V19.85Z" fill="#DAE3EA"/>
<path d="M0.75 19.175C0.75 20.1125 0.75 21.125 2.1 21.125H21.9375C22.1625 21.125 23.2125 20.9375 23.25 19.925V18.7625H0.75V19.175Z" fill="#C5D0D8"/>
<path d="M21.0375 14H19.35C18.0375 12.5 16.275 12.5 16.275 12.5V7.84998C18.9375 7.84998 21.0375 9.27498 21.0375 14ZM23.25 14.9375H22.125C22.125 14.9375 22.2375 9.76248 20.175 8.29998H21.075C21.075 8.26248 23.4 10.0625 23.25 14.9375ZM15.225 7.84998H2.0625V12.5H15.225V7.84998ZM21.6 19.925C21.6 20.3375 21.8625 20.675 22.2 20.675C22.4625 20.675 22.4625 20.675 22.4625 19.925C22.4625 19.175 22.4625 19.175 22.2 19.175C21.9 19.175 21.6 19.5125 21.6 19.925Z" fill="#3E4347"/>
<path d="M21.7875 19.925C21.7875 20.1875 21.975 20.4125 22.2 20.4125C22.3875 20.4125 22.3875 20.4125 22.3875 19.925C22.3875 19.4375 22.3875 19.4375 22.2 19.4375C21.975 19.4375 21.7875 19.6625 21.7875 19.925Z" fill="white"/>
<path d="M0.750049 17.4875L1.61255 16.4V15.35H0.750049V17.4875Z" fill="#F15744"/>
<path d="M1.61255 14.2625L0.750049 13.2125V15.35H1.61255V14.2625Z" fill="#FFD45C"/>
<path d="M20.025 17.5625H22.2V16.4375L20.025 16.1V17.5625Z" fill="#3E4347"/>
<path d="M20.5875 17.4125H22.125V16.5875L20.5875 16.3625V17.4125Z" fill="white"/>
<path d="M0.75039 17.975H10.8004C12.4129 17.975 12.9004 18.7625 12.9004 18.7625H0.75039V17.975Z" fill="#62727A"/>
<path d="M1.42461 21.0125C1.42461 19.0625 2.99961 17.4875 4.94961 17.4875C6.89961 17.4875 8.47461 19.0625 8.47461 21.0125C8.43711 21.95 1.42461 21.95 1.42461 21.0125Z" fill="#C5D0D8"/>
<path d="M2.28755 21.0875C2.28755 19.625 3.48755 18.425 4.95005 18.425C6.41255 18.425 7.61255 19.625 7.61255 21.0875C7.61255 22.55 6.41255 23.75 4.95005 23.75C3.48755 23.75 2.28755 22.55 2.28755 21.0875Z" fill="#3E4347"/>
<path d="M4.94995 22.5875C4.12152 22.5875 3.44995 21.916 3.44995 21.0875C3.44995 20.2591 4.12152 19.5875 4.94995 19.5875C5.77838 19.5875 6.44995 20.2591 6.44995 21.0875C6.44995 21.916 5.77838 22.5875 4.94995 22.5875Z" fill="#DAE3EA"/>
<path d="M4.94995 19.9625C4.74284 19.9625 4.57495 19.7946 4.57495 19.5875C4.57495 19.3804 4.74284 19.2125 4.94995 19.2125C5.15706 19.2125 5.32495 19.3804 5.32495 19.5875C5.32495 19.7946 5.15706 19.9625 4.94995 19.9625Z" fill="#3E4347"/>
<path d="M6.26245 20.7125C6.05534 20.7125 5.88745 20.5446 5.88745 20.3375C5.88745 20.1304 6.05534 19.9625 6.26245 19.9625C6.46956 19.9625 6.63745 20.1304 6.63745 20.3375C6.63745 20.5446 6.46956 20.7125 6.26245 20.7125Z" fill="#3E4347"/>
<path d="M6.26245 22.2125C6.05534 22.2125 5.88745 22.0446 5.88745 21.8375C5.88745 21.6304 6.05534 21.4625 6.26245 21.4625C6.46956 21.4625 6.63745 21.6304 6.63745 21.8375C6.63745 22.0446 6.46956 22.2125 6.26245 22.2125Z" fill="#3E4347"/>
<path d="M4.94995 23C4.74284 23 4.57495 22.8321 4.57495 22.625C4.57495 22.4179 4.74284 22.25 4.94995 22.25C5.15706 22.25 5.32495 22.4179 5.32495 22.625C5.32495 22.8321 5.15706 23 4.94995 23Z" fill="#3E4347"/>
<path d="M3.63745 22.2125C3.43034 22.2125 3.26245 22.0446 3.26245 21.8375C3.26245 21.6304 3.43034 21.4625 3.63745 21.4625C3.84456 21.4625 4.01245 21.6304 4.01245 21.8375C4.01245 22.0446 3.84456 22.2125 3.63745 22.2125Z" fill="#3E4347"/>
<path d="M3.45022 20.675C3.63772 20.7875 3.86272 20.7125 3.97522 20.525C4.08772 20.3375 4.01272 20.1125 3.82522 20C3.63772 19.8875 3.41272 19.9625 3.30022 20.15C3.18772 20.3375 3.26272 20.5625 3.45022 20.675Z" fill="#3E4347"/>
<path d="M4.94995 21.8375C4.53574 21.8375 4.19995 21.5017 4.19995 21.0875C4.19995 20.6733 4.53574 20.3375 4.94995 20.3375C5.36416 20.3375 5.69995 20.6733 5.69995 21.0875C5.69995 21.5017 5.36416 21.8375 4.94995 21.8375Z" fill="#62727A"/>
<path d="M13.3875 21.0125C13.3875 19.0625 14.9625 17.4875 16.9125 17.4875C18.8625 17.4875 20.4375 19.0625 20.4375 21.0125C20.4375 21.95 13.3875 21.95 13.3875 21.0125Z" fill="#C5D0D8"/>
<path d="M14.25 21.0875C14.25 19.625 15.45 18.425 16.9125 18.425C18.375 18.425 19.575 19.625 19.575 21.0875C19.575 22.55 18.375 23.75 16.9125 23.75C15.45 23.75 14.25 22.55 14.25 21.0875Z" fill="#3E4347"/>
<path d="M15.4121 21.0874C15.4121 20.2624 16.0871 19.5874 16.9121 19.5874C17.7371 19.5874 18.4121 20.2624 18.4121 21.0874C18.4121 21.9124 17.7371 22.5874 16.9121 22.5874C16.0871 22.6249 15.4121 21.9499 15.4121 21.0874Z" fill="#DAE3EA"/>
<path d="M16.9122 19.9625C16.7051 19.9625 16.5372 19.7946 16.5372 19.5875C16.5372 19.3804 16.7051 19.2125 16.9122 19.2125C17.1193 19.2125 17.2872 19.3804 17.2872 19.5875C17.2872 19.7946 17.1193 19.9625 16.9122 19.9625Z" fill="#3E4347"/>
<path d="M18.2247 20.7125C18.0176 20.7125 17.8497 20.5446 17.8497 20.3375C17.8497 20.1304 18.0176 19.9625 18.2247 19.9625C18.4318 19.9625 18.5997 20.1304 18.5997 20.3375C18.5997 20.5446 18.4318 20.7125 18.2247 20.7125Z" fill="#3E4347"/>
<path d="M18.4125 21.5375C18.225 21.425 18 21.5 17.8875 21.6875C17.775 21.875 17.85 22.1 18.0375 22.2125C18.225 22.325 18.45 22.25 18.5625 22.0625C18.675 21.875 18.6 21.6125 18.4125 21.5375Z" fill="#3E4347"/>
<path d="M16.9122 23.0001C16.7051 23.0001 16.5372 22.8322 16.5372 22.6251C16.5372 22.418 16.7051 22.2501 16.9122 22.2501C17.1193 22.2501 17.2872 22.418 17.2872 22.6251C17.2872 22.8322 17.1193 23.0001 16.9122 23.0001Z" fill="#3E4347"/>
<path d="M15.5997 22.2125C15.3926 22.2125 15.2247 22.0446 15.2247 21.8375C15.2247 21.6304 15.3926 21.4625 15.5997 21.4625C15.8068 21.4625 15.9747 21.6304 15.9747 21.8375C15.9747 22.0446 15.8068 22.2125 15.5997 22.2125Z" fill="#3E4347"/>
<path d="M15.5997 20.7125C15.3926 20.7125 15.2247 20.5446 15.2247 20.3375C15.2247 20.1304 15.3926 19.9625 15.5997 19.9625C15.8068 19.9625 15.9747 20.1304 15.9747 20.3375C15.9747 20.5446 15.8068 20.7125 15.5997 20.7125Z" fill="#3E4347"/>
<path d="M16.9121 21.8376C16.4979 21.8376 16.1621 21.5019 16.1621 21.0876C16.1621 20.6734 16.4979 20.3376 16.9121 20.3376C17.3263 20.3376 17.6621 20.6734 17.6621 21.0876C17.6621 21.5019 17.3263 21.8376 16.9121 21.8376Z" fill="#62727A"/>
<path d="M9.3 14.1125H3.675V14.45H9.3V14.1125ZM14.55 14.6C14.55 14.7125 14.625 14.7875 14.7375 14.7875C14.85 14.7875 14.925 14.7125 14.925 14.6V13.55C14.925 13.4375 14.85 13.3625 14.7375 13.3625C14.625 13.3625 14.55 13.4375 14.55 13.55V14.6ZM17.4375 14.1875C17.55 14.1875 17.625 14.1125 17.625 14C17.625 13.8875 17.55 13.8125 17.4375 13.8125H16.3875C16.275 13.8125 16.2 13.8875 16.2 14C16.2 14.1125 16.275 14.1875 16.3875 14.1875H17.4375ZM23.25 16.1H22.5375V18.2H23.25V16.1Z" fill="#62727A"/>
</svg>
